<svg width="164" height="164" viewBox="0 0 164 164" fill="none" xmlns="http://www.w3.org/2000/svg">
<path d="M160.307 5.31127L142.534 41.8827C142.032 42.9157 140.985 43.5714 139.836 43.5714H110.239C107.478 43.5714 105.239 45.81 105.239 48.5714V136.426C105.239 137.546 104.615 138.573 103.62 139.089L63.1422 160.083C61.1452 161.118 58.761 159.669 58.761 157.419V48.5714C58.761 45.81 56.5224 43.5714 53.761 43.5714H6.3912C4.17583 43.5714 2.72463 41.2527 3.69295 39.2602L21.4656 2.68873C21.9676 1.65573 23.0153 1 24.1638 1H157.609C159.824 1 161.275 3.31872 160.307 5.31127Z" fill="url(#paint0_linear_4_4)" stroke="black" stroke-width="2"/>
<mask id="path-2-outside-1_4_4" maskUnits="userSpaceOnUse" x="15.0189" y="11.4088" width="133" height="25" fill="black">
<rect fill="white" x="15.0189" y="11.4088" width="133" height="25"/>
<path d="M37.9061 13.4088C38.5167 13.4088 38.9255 13.5305 39.1324 13.7738C39.2869 13.9266 39.3827 14.092 39.4199 14.2702C39.439 14.362 39.5671 14.4218 39.6397 14.3626C39.9021 14.1489 40.2199 13.9526 40.593 13.7738C41.0956 13.5305 41.6523 13.4088 42.2629 13.4088H47.1891C49.3675 13.4088 49.9106 14.3608 48.8185 16.2647L41.8633 28.3895C41.8455 28.4205 41.8124 28.4397 41.7766 28.4397H37.3285C37.2516 28.4397 37.2035 28.3566 37.2418 28.2899L43.0559 18.1543C43.3597 17.6246 43.2228 17.3598 42.6452 17.3598H40.9372C40.3595 17.3598 39.9188 17.6246 39.615 18.1543L33.7438 28.3895C33.7259 28.4205 33.6928 28.4397 33.657 28.4397H29.3822C29.3054 28.4397 29.2572 28.3566 29.2955 28.2899L35.1096 18.1543C35.4135 17.6246 35.2766 17.3598 34.699 17.3598H32.9909C32.4133 17.3598 31.9726 17.6246 31.6687 18.1543L23.0167 31.9733C23.0058 31.9907 22.9899 32.0043 22.971 32.0123L17.3038 34.4215C17.2145 34.4594 17.1289 34.3607 17.1791 34.2777L28.074 16.2647C29.1662 14.3608 30.8015 13.4088 32.9799 13.4088H37.9061Z"/>
<path d="M62.1647 13.4088C62.5938 13.4088 62.784 13.5663 62.7354 13.8812L60.0927 28.3577C60.084 28.4052 60.0427 28.4397 59.9943 28.4397H50.0485C49.9628 28.4397 49.9168 28.3389 49.973 28.2741L53.2293 24.5232C53.2483 24.5013 53.2758 24.4887 53.3048 24.4887H55.903C55.9494 24.4887 55.9897 24.4568 56.0003 24.4116L57.2866 18.9339C57.2951 18.8976 57.2675 18.8629 57.2303 18.8629V18.8629C57.2137 18.8629 57.198 18.87 57.187 18.8824L48.7452 28.406C48.7262 28.4274 48.699 28.4397 48.6703 28.4397H43.9705C43.8829 28.4397 43.8376 28.3352 43.8975 28.2713L57.3884 13.8812C57.6845 13.5663 58.0389 13.4088 58.4515 13.4088H62.1647Z"/>
<path d="M74.4773 13.4088C75.2694 13.4088 75.6746 13.7237 75.6929 14.3536L75.8692 20.4543C75.8702 20.4888 75.8985 20.5163 75.933 20.5163V20.5163C75.9559 20.5163 75.977 20.504 75.9884 20.4842L80.0183 13.4591C80.0361 13.428 80.0692 13.4088 80.105 13.4088H84.4293C84.5062 13.4088 84.5543 13.4919 84.5161 13.5586L76.5094 27.5164C76.3616 27.774 76.1518 27.9959 75.88 28.182C75.6164 28.3538 75.3444 28.4397 75.0638 28.4397H72.8607C72.1015 28.4397 71.6963 28.1248 71.645 27.4949L71.0138 21.0273C71.0105 20.9932 70.9818 20.9672 70.9475 20.9672V20.9672C70.9237 20.9672 70.9016 20.98 70.8897 21.0007L66.6513 28.3895C66.6335 28.4205 66.6004 28.4397 66.5645 28.4397H62.2402C62.1634 28.4397 62.1153 28.3566 62.1535 28.2899L70.1602 14.3321C70.308 14.0745 70.5137 13.8597 70.7772 13.688C71.049 13.5019 71.3252 13.4088 71.6057 13.4088H74.4773Z"/>
<path d="M96.3959 13.4088C96.8249 13.4088 97.0152 13.5663 96.9665 13.8812L94.3239 28.3577C94.3152 28.4052 94.2738 28.4397 94.2255 28.4397H84.2797C84.1939 28.4397 84.148 28.3389 84.2042 28.2741L87.4604 24.5232C87.4794 24.5013 87.507 24.4887 87.5359 24.4887H90.1341C90.1805 24.4887 90.2208 24.4568 90.2314 24.4116L91.5177 18.9339C91.5262 18.8976 91.4987 18.8629 91.4614 18.8629V18.8629C91.4448 18.8629 91.4291 18.87 91.4181 18.8824L82.9763 28.406C82.9573 28.4274 82.9301 28.4397 82.9015 28.4397H78.2016C78.114 28.4397 78.0688 28.3352 78.1286 28.2713L91.6195 13.8812C91.9157 13.5663 92.2701 13.4088 92.6826 13.4088H96.3959Z"/>
<path d="M115.96 13.4088C116.037 13.4088 116.085 13.4919 116.047 13.5586L113.907 17.2881C113.89 17.3192 113.857 17.3383 113.821 17.3383H109.027C107.954 17.3383 107.063 17.5387 106.355 17.9396C105.663 18.3404 105.017 19.0633 104.418 20.1083L103.432 21.8261C102.833 22.8711 102.649 23.594 102.881 23.9949C103.13 24.3957 103.791 24.5961 104.863 24.5961H105.309C105.557 24.5961 105.75 24.4744 105.89 24.2311L107.844 20.8242C107.862 20.7931 107.895 20.7739 107.931 20.7739H112.255C112.332 20.7739 112.38 20.857 112.342 20.9237L108.806 27.0869C108.289 27.9888 107.519 28.4397 106.496 28.4397H102.683C101.33 28.4397 100.249 28.2965 99.4393 28.0102C98.6545 27.7096 98.117 27.2802 97.8266 26.7219C97.5362 26.1636 97.4725 25.4836 97.6353 24.682C97.8228 23.866 98.2121 22.9427 98.8034 21.912L99.9366 19.9365C100.528 18.9058 101.194 17.9897 101.934 17.188C102.699 16.372 103.547 15.6849 104.478 15.1266C105.409 14.5683 106.435 14.146 107.556 13.8597C108.703 13.5591 109.952 13.4088 111.306 13.4088H115.96Z"/>
<path d="M130.856 13.4088C130.933 13.4088 130.981 13.4919 130.943 13.5586L128.803 17.2881C128.786 17.3192 128.752 17.3383 128.717 17.3383H122.512C122.264 17.3383 122.071 17.46 121.931 17.7034L118.248 24.1237C118.108 24.367 118.162 24.4887 118.41 24.4887H124.5C124.577 24.4887 124.625 24.5718 124.587 24.6385L122.435 28.3895C122.417 28.4205 122.384 28.4397 122.349 28.4397H112.628C111.605 28.4397 111.352 27.9888 111.87 27.0869L118.952 14.7401C119.461 13.8526 120.227 13.4088 121.251 13.4088H130.856ZM127.567 19.0561C127.644 19.0561 127.692 19.1392 127.654 19.2059L125.724 22.5704C125.706 22.6014 125.673 22.6206 125.637 22.6206H120.05C119.973 22.6206 119.925 22.5375 119.964 22.4708L121.893 19.1064C121.911 19.0753 121.944 19.0561 121.98 19.0561H127.567Z"/>
<path d="M142.74 13.4088C145.859 13.4088 146.655 14.7401 145.127 17.4027L144.622 18.2831C144.212 18.9989 143.8 19.5285 143.389 19.8721C143.058 20.1541 142.666 20.394 142.213 20.592C142.13 20.6283 142.128 20.7545 142.203 20.8048C142.457 20.9743 142.61 21.2289 142.663 21.5684C142.755 21.9836 142.604 22.5347 142.21 23.2218L139.246 28.3895C139.228 28.4205 139.195 28.4397 139.159 28.4397H134.736C134.659 28.4397 134.611 28.3566 134.649 28.2899L137.458 23.3936C137.578 23.1831 137.624 23.007 137.594 22.8653C137.593 22.8596 137.592 22.8538 137.592 22.848C137.577 22.6964 137.417 22.6206 137.109 22.6206H134.459C134.383 22.6206 134.334 22.5375 134.373 22.4708L136.204 19.2782C136.222 19.2471 136.255 19.2279 136.291 19.2279H138.857C139.187 19.2279 139.443 19.1563 139.624 19.0132C139.83 18.8557 139.994 18.6696 140.117 18.4549L140.376 18.004C140.688 17.46 140.547 17.188 139.953 17.188H137.007C136.759 17.188 136.566 17.3097 136.426 17.553L130.21 28.3895C130.192 28.4205 130.159 28.4397 130.123 28.4397H125.675C125.599 28.4397 125.55 28.3566 125.589 28.2899L133.361 14.7401C133.87 13.8526 134.637 13.4088 135.66 13.4088H142.74Z"/>
</mask>
<path d="M37.9061 13.4088C38.5167 13.4088 38.9255 13.5305 39.1324 13.7738C39.2869 13.9266 39.3827 14.092 39.4199 14.2702C39.439 14.362 39.5671 14.4218 39.6397 14.3626C39.9021 14.1489 40.2199 13.9526 40.593 13.7738C41.0956 13.5305 41.6523 13.4088 42.2629 13.4088H47.1891C49.3675 13.4088 49.9106 14.3608 48.8185 16.2647L41.8633 28.3895C41.8455 28.4205 41.8124 28.4397 41.7766 28.4397H37.3285C37.2516 28.4397 37.2035 28.3566 37.2418 28.2899L43.0559 18.1543C43.3597 17.6246 43.2228 17.3598 42.6452 17.3598H40.9372C40.3595 17.3598 39.9188 17.6246 39.615 18.1543L33.7438 28.3895C33.7259 28.4205 33.6928 28.4397 33.657 28.4397H29.3822C29.3054 28.4397 29.2572 28.3566 29.2955 28.2899L35.1096 18.1543C35.4135 17.6246 35.2766 17.3598 34.699 17.3598H32.9909C32.4133 17.3598 31.9726 17.6246 31.6687 18.1543L23.0167 31.9733C23.0058 31.9907 22.9899 32.0043 22.971 32.0123L17.3038 34.4215C17.2145 34.4594 17.1289 34.3607 17.1791 34.2777L28.074 16.2647C29.1662 14.3608 30.8015 13.4088 32.9799 13.4088H37.9061Z" fill="url(#paint1_linear_4_4)"/>
<path d="M62.1647 13.4088C62.5938 13.4088 62.784 13.5663 62.7354 13.8812L60.0927 28.3577C60.084 28.4052 60.0427 28.4397 59.9943 28.4397H50.0485C49.9628 28.4397 49.9168 28.3389 49.973 28.2741L53.2293 24.5232C53.2483 24.5013 53.2758 24.4887 53.3048 24.4887H55.903C55.9494 24.4887 55.9897 24.4568 56.0003 24.4116L57.2866 18.9339C57.2951 18.8976 57.2675 18.8629 57.2303 18.8629V18.8629C57.2137 18.8629 57.198 18.87 57.187 18.8824L48.7452 28.406C48.7262 28.4274 48.699 28.4397 48.6703 28.4397H43.9705C43.8829 28.4397 43.8376 28.3352 43.8975 28.2713L57.3884 13.8812C57.6845 13.5663 58.0389 13.4088 58.4515 13.4088H62.1647Z" fill="url(#paint2_linear_4_4)"/>
<path d="M74.4773 13.4088C75.2694 13.4088 75.6746 13.7237 75.6929 14.3536L75.8692 20.4543C75.8702 20.4888 75.8985 20.5163 75.933 20.5163V20.5163C75.9559 20.5163 75.977 20.504 75.9884 20.4842L80.0183 13.4591C80.0361 13.428 80.0692 13.4088 80.105 13.4088H84.4293C84.5062 13.4088 84.5543 13.4919 84.5161 13.5586L76.5094 27.5164C76.3616 27.774 76.1518 27.9959 75.88 28.182C75.6164 28.3538 75.3444 28.4397 75.0638 28.4397H72.8607C72.1015 28.4397 71.6963 28.1248 71.645 27.4949L71.0138 21.0273C71.0105 20.9932 70.9818 20.9672 70.9475 20.9672V20.9672C70.9237 20.9672 70.9016 20.98 70.8897 21.0007L66.6513 28.3895C66.6335 28.4205 66.6004 28.4397 66.5645 28.4397H62.2402C62.1634 28.4397 62.1153 28.3566 62.1535 28.2899L70.1602 14.3321C70.308 14.0745 70.5137 13.8597 70.7772 13.688C71.049 13.5019 71.3252 13.4088 71.6057 13.4088H74.4773Z" fill="url(#paint3_linear_4_4)"/>
<path d="M96.3959 13.4088C96.8249 13.4088 97.0152 13.5663 96.9665 13.8812L94.3239 28.3577C94.3152 28.4052 94.2738 28.4397 94.2255 28.4397H84.2797C84.1939 28.4397 84.148 28.3389 84.2042 28.2741L87.4604 24.5232C87.4794 24.5013 87.507 24.4887 87.5359 24.4887H90.1341C90.1805 24.4887 90.2208 24.4568 90.2314 24.4116L91.5177 18.9339C91.5262 18.8976 91.4987 18.8629 91.4614 18.8629V18.8629C91.4448 18.8629 91.4291 18.87 91.4181 18.8824L82.9763 28.406C82.9573 28.4274 82.9301 28.4397 82.9015 28.4397H78.2016C78.114 28.4397 78.0688 28.3352 78.1286 28.2713L91.6195 13.8812C91.9157 13.5663 92.2701 13.4088 92.6826 13.4088H96.3959Z" fill="url(#paint4_linear_4_4)"/>
<path d="M115.96 13.4088C116.037 13.4088 116.085 13.4919 116.047 13.5586L113.907 17.2881C113.89 17.3192 113.857 17.3383 113.821 17.3383H109.027C107.954 17.3383 107.063 17.5387 106.355 17.9396C105.663 18.3404 105.017 19.0633 104.418 20.1083L103.432 21.8261C102.833 22.8711 102.649 23.594 102.881 23.9949C103.13 24.3957 103.791 24.5961 104.863 24.5961H105.309C105.557 24.5961 105.75 24.4744 105.89 24.2311L107.844 20.8242C107.862 20.7931 107.895 20.7739 107.931 20.7739H112.255C112.332 20.7739 112.38 20.857 112.342 20.9237L108.806 27.0869C108.289 27.9888 107.519 28.4397 106.496 28.4397H102.683C101.33 28.4397 100.249 28.2965 99.4393 28.0102C98.6545 27.7096 98.117 27.2802 97.8266 26.7219C97.5362 26.1636 97.4725 25.4836 97.6353 24.682C97.8228 23.866 98.2121 22.9427 98.8034 21.912L99.9366 19.9365C100.528 18.9058 101.194 17.9897 101.934 17.188C102.699 16.372 103.547 15.6849 104.478 15.1266C105.409 14.5683 106.435 14.146 107.556 13.8597C108.703 13.5591 109.952 13.4088 111.306 13.4088H115.96Z" fill="url(#paint5_linear_4_4)"/>
<path d="M130.856 13.4088C130.933 13.4088 130.981 13.4919 130.943 13.5586L128.803 17.2881C128.786 17.3192 128.752 17.3383 128.717 17.3383H122.512C122.264 17.3383 122.071 17.46 121.931 17.7034L118.248 24.1237C118.108 24.367 118.162 24.4887 118.41 24.4887H124.5C124.577 24.4887 124.625 24.5718 124.587 24.6385L122.435 28.3895C122.417 28.4205 122.384 28.4397 122.349 28.4397H112.628C111.605 28.4397 111.352 27.9888 111.87 27.0869L118.952 14.7401C119.461 13.8526 120.227 13.4088 121.251 13.4088H130.856ZM127.567 19.0561C127.644 19.0561 127.692 19.1392 127.654 19.2059L125.724 22.5704C125.706 22.6014 125.673 22.6206 125.637 22.6206H120.05C119.973 22.6206 119.925 22.5375 119.964 22.4708L121.893 19.1064C121.911 19.0753 121.944 19.0561 121.98 19.0561H127.567Z" fill="url(#paint6_linear_4_4)"/>
<path d="M142.74 13.4088C145.859 13.4088 146.655 14.7401 145.127 17.4027L144.622 18.2831C144.212 18.9989 143.8 19.5285 143.389 19.8721C143.058 20.1541 142.666 20.394 142.213 20.592C142.13 20.6283 142.128 20.7545 142.203 20.8048C142.457 20.9743 142.61 21.2289 142.663 21.5684C142.755 21.9836 142.604 22.5347 142.21 23.2218L139.246 28.3895C139.228 28.4205 139.195 28.4397 139.159 28.4397H134.736C134.659 28.4397 134.611 28.3566 134.649 28.2899L137.458 23.3936C137.578 23.1831 137.624 23.007 137.594 22.8653C137.593 22.8596 137.592 22.8538 137.592 22.848C137.577 22.6964 137.417 22.6206 137.109 22.6206H134.459C134.383 22.6206 134.334 22.5375 134.373 22.4708L136.204 19.2782C136.222 19.2471 136.255 19.2279 136.291 19.2279H138.857C139.187 19.2279 139.443 19.1563 139.624 19.0132C139.83 18.8557 139.994 18.6696 140.117 18.4549L140.376 18.004C140.688 17.46 140.547 17.188 139.953 17.188H137.007C136.759 17.188 136.566 17.3097 136.426 17.553L130.21 28.3895C130.192 28.4205 130.159 28.4397 130.123 28.4397H125.675C125.599 28.4397 125.55 28.3566 125.589 28.2899L133.361 14.7401C133.87 13.8526 134.637 13.4088 135.66 13.4088H142.74Z" fill="url(#paint7_linear_4_4)"/>
<path d="M37.9061 13.4088C38.5167 13.4088 38.9255 13.5305 39.1324 13.7738C39.2869 13.9266 39.3827 14.092 39.4199 14.2702C39.439 14.362 39.5671 14.4218 39.6397 14.3626C39.9021 14.1489 40.2199 13.9526 40.593 13.7738C41.0956 13.5305 41.6523 13.4088 42.2629 13.4088H47.1891C49.3675 13.4088 49.9106 14.3608 48.8185 16.2647L41.8633 28.3895C41.8455 28.4205 41.8124 28.4397 41.7766 28.4397H37.3285C37.2516 28.4397 37.2035 28.3566 37.2418 28.2899L43.0559 18.1543C43.3597 17.6246 43.2228 17.3598 42.6452 17.3598H40.9372C40.3595 17.3598 39.9188 17.6246 39.615 18.1543L33.7438 28.3895C33.7259 28.4205 33.6928 28.4397 33.657 28.4397H29.3822C29.3054 28.4397 29.2572 28.3566 29.2955 28.2899L35.1096 18.1543C35.4135 17.6246 35.2766 17.3598 34.699 17.3598H32.9909C32.4133 17.3598 31.9726 17.6246 31.6687 18.1543L23.0167 31.9733C23.0058 31.9907 22.9899 32.0043 22.971 32.0123L17.3038 34.4215C17.2145 34.4594 17.1289 34.3607 17.1791 34.2777L28.074 16.2647C29.1662 14.3608 30.8015 13.4088 32.9799 13.4088H37.9061Z" stroke="black" stroke-width="2.4" mask="url(#path-2-outside-1_4_4)"/>
<path d="M62.1647 13.4088C62.5938 13.4088 62.784 13.5663 62.7354 13.8812L60.0927 28.3577C60.084 28.4052 60.0427 28.4397 59.9943 28.4397H50.0485C49.9628 28.4397 49.9168 28.3389 49.973 28.2741L53.2293 24.5232C53.2483 24.5013 53.2758 24.4887 53.3048 24.4887H55.903C55.9494 24.4887 55.9897 24.4568 56.0003 24.4116L57.2866 18.9339C57.2951 18.8976 57.2675 18.8629 57.2303 18.8629V18.8629C57.2137 18.8629 57.198 18.87 57.187 18.8824L48.7452 28.406C48.7262 28.4274 48.699 28.4397 48.6703 28.4397H43.9705C43.8829 28.4397 43.8376 28.3352 43.8975 28.2713L57.3884 13.8812C57.6845 13.5663 58.0389 13.4088 58.4515 13.4088H62.1647Z" stroke="black" stroke-width="2.4" mask="url(#path-2-outside-1_4_4)"/>
<path d="M74.4773 13.4088C75.2694 13.4088 75.6746 13.7237 75.6929 14.3536L75.8692 20.4543C75.8702 20.4888 75.8985 20.5163 75.933 20.5163V20.5163C75.9559 20.5163 75.977 20.504 75.9884 20.4842L80.0183 13.4591C80.0361 13.428 80.0692 13.4088 80.105 13.4088H84.4293C84.5062 13.4088 84.5543 13.4919 84.5161 13.5586L76.5094 27.5164C76.3616 27.774 76.1518 27.9959 75.88 28.182C75.6164 28.3538 75.3444 28.4397 75.0638 28.4397H72.8607C72.1015 28.4397 71.6963 28.1248 71.645 27.4949L71.0138 21.0273C71.0105 20.9932 70.9818 20.9672 70.9475 20.9672V20.9672C70.9237 20.9672 70.9016 20.98 70.8897 21.0007L66.6513 28.3895C66.6335 28.4205 66.6004 28.4397 66.5645 28.4397H62.2402C62.1634 28.4397 62.1153 28.3566 62.1535 28.2899L70.1602 14.3321C70.308 14.0745 70.5137 13.8597 70.7772 13.688C71.049 13.5019 71.3252 13.4088 71.6057 13.4088H74.4773Z" stroke="black" stroke-width="2.4" mask="url(#path-2-outside-1_4_4)"/>
<path d="M96.3959 13.4088C96.8249 13.4088 97.0152 13.5663 96.9665 13.8812L94.3239 28.3577C94.3152 28.4052 94.2738 28.4397 94.2255 28.4397H84.2797C84.1939 28.4397 84.148 28.3389 84.2042 28.2741L87.4604 24.5232C87.4794 24.5013 87.507 24.4887 87.5359 24.4887H90.1341C90.1805 24.4887 90.2208 24.4568 90.2314 24.4116L91.5177 18.9339C91.5262 18.8976 91.4987 18.8629 91.4614 18.8629V18.8629C91.4448 18.8629 91.4291 18.87 91.4181 18.8824L82.9763 28.406C82.9573 28.4274 82.9301 28.4397 82.9015 28.4397H78.2016C78.114 28.4397 78.0688 28.3352 78.1286 28.2713L91.6195 13.8812C91.9157 13.5663 92.2701 13.4088 92.6826 13.4088H96.3959Z" stroke="black" stroke-width="2.4" mask="url(#path-2-outside-1_4_4)"/>
<path d="M115.96 13.4088C116.037 13.4088 116.085 13.4919 116.047 13.5586L113.907 17.2881C113.89 17.3192 113.857 17.3383 113.821 17.3383H109.027C107.954 17.3383 107.063 17.5387 106.355 17.9396C105.663 18.3404 105.017 19.0633 104.418 20.1083L103.432 21.8261C102.833 22.8711 102.649 23.594 102.881 23.9949C103.13 24.3957 103.791 24.5961 104.863 24.5961H105.309C105.557 24.5961 105.75 24.4744 105.89 24.2311L107.844 20.8242C107.862 20.7931 107.895 20.7739 107.931 20.7739H112.255C112.332 20.7739 112.38 20.857 112.342 20.9237L108.806 27.0869C108.289 27.9888 107.519 28.4397 106.496 28.4397H102.683C101.33 28.4397 100.249 28.2965 99.4393 28.0102C98.6545 27.7096 98.117 27.2802 97.8266 26.7219C97.5362 26.1636 97.4725 25.4836 97.6353 24.682C97.8228 23.866 98.2121 22.9427 98.8034 21.912L99.9366 19.9365C100.528 18.9058 101.194 17.9897 101.934 17.188C102.699 16.372 103.547 15.6849 104.478 15.1266C105.409 14.5683 106.435 14.146 107.556 13.8597C108.703 13.5591 109.952 13.4088 111.306 13.4088H115.96Z" stroke="black" stroke-width="2.4" mask="url(#path-2-outside-1_4_4)"/>
<path d="M130.856 13.4088C130.933 13.4088 130.981 13.4919 130.943 13.5586L128.803 17.2881C128.786 17.3192 128.752 17.3383 128.717 17.3383H122.512C122.264 17.3383 122.071 17.46 121.931 17.7034L118.248 24.1237C118.108 24.367 118.162 24.4887 118.41 24.4887H124.5C124.577 24.4887 124.625 24.5718 124.587 24.6385L122.435 28.3895C122.417 28.4205 122.384 28.4397 122.349 28.4397H112.628C111.605 28.4397 111.352 27.9888 111.87 27.0869L118.952 14.7401C119.461 13.8526 120.227 13.4088 121.251 13.4088H130.856ZM127.567 19.0561C127.644 19.0561 127.692 19.1392 127.654 19.2059L125.724 22.5704C125.706 22.6014 125.673 22.6206 125.637 22.6206H120.05C119.973 22.6206 119.925 22.5375 119.964 22.4708L121.893 19.1064C121.911 19.0753 121.944 19.0561 121.98 19.0561H127.567Z" stroke="black" stroke-width="2.4" mask="url(#path-2-outside-1_4_4)"/>
<path d="M142.74 13.4088C145.859 13.4088 146.655 14.7401 145.127 17.4027L144.622 18.2831C144.212 18.9989 143.8 19.5285 143.389 19.8721C143.058 20.1541 142.666 20.394 142.213 20.592C142.13 20.6283 142.128 20.7545 142.203 20.8048C142.457 20.9743 142.61 21.2289 142.663 21.5684C142.755 21.9836 142.604 22.5347 142.21 23.2218L139.246 28.3895C139.228 28.4205 139.195 28.4397 139.159 28.4397H134.736C134.659 28.4397 134.611 28.3566 134.649 28.2899L137.458 23.3936C137.578 23.1831 137.624 23.007 137.594 22.8653C137.593 22.8596 137.592 22.8538 137.592 22.848C137.577 22.6964 137.417 22.6206 137.109 22.6206H134.459C134.383 22.6206 134.334 22.5375 134.373 22.4708L136.204 19.2782C136.222 19.2471 136.255 19.2279 136.291 19.2279H138.857C139.187 19.2279 139.443 19.1563 139.624 19.0132C139.83 18.8557 139.994 18.6696 140.117 18.4549L140.376 18.004C140.688 17.46 140.547 17.188 139.953 17.188H137.007C136.759 17.188 136.566 17.3097 136.426 17.553L130.21 28.3895C130.192 28.4205 130.159 28.4397 130.123 28.4397H125.675C125.599 28.4397 125.55 28.3566 125.589 28.2899L133.361 14.7401C133.87 13.8526 134.637 13.4088 135.66 13.4088H142.74Z" stroke="black" stroke-width="2.4" mask="url(#path-2-outside-1_4_4)"/>
<defs>
<linearGradient id="paint0_linear_4_4" x1="82" y1="0" x2="82" y2="164" gradientUnits="userSpaceOnUse">
<stop stop-color="#FF0033"/>
<stop offset="1" stop-color="#9D0020"/>
</linearGradient>
<linearGradient id="paint1_linear_4_4" x1="91.7263" y1="8.75641" x2="91.7263" y2="34.7026" gradientUnits="userSpaceOnUse">
<stop stop-color="#005E94"/>
<stop offset="0.510417" stop-color="#95D2EB"/>
<stop offset="1" stop-color="#005E94"/>
</linearGradient>
<linearGradient id="paint2_linear_4_4" x1="91.7263" y1="8.75641" x2="91.7263" y2="34.7026" gradientUnits="userSpaceOnUse">
<stop stop-color="#005E94"/>
<stop offset="0.510417" stop-color="#95D2EB"/>
<stop offset="1" stop-color="#005E94"/>
</linearGradient>
<linearGradient id="paint3_linear_4_4" x1="91.7263" y1="8.75641" x2="91.7263" y2="34.7026" gradientUnits="userSpaceOnUse">
<stop stop-color="#005E94"/>
<stop offset="0.510417" stop-color="#95D2EB"/>
<stop offset="1" stop-color="#005E94"/>
</linearGradient>
<linearGradient id="paint4_linear_4_4" x1="91.7263" y1="8.75641" x2="91.7263" y2="34.7026" gradientUnits="userSpaceOnUse">
<stop stop-color="#005E94"/>
<stop offset="0.510417" stop-color="#95D2EB"/>
<stop offset="1" stop-color="#005E94"/>
</linearGradient>
<linearGradient id="paint5_linear_4_4" x1="91.7263" y1="8.75641" x2="91.7263" y2="34.7026" gradientUnits="userSpaceOnUse">
<stop stop-color="#005E94"/>
<stop offset="0.510417" stop-color="#95D2EB"/>
<stop offset="1" stop-color="#005E94"/>
</linearGradient>
<linearGradient id="paint6_linear_4_4" x1="91.7263" y1="8.75641" x2="91.7263" y2="34.7026" gradientUnits="userSpaceOnUse">
<stop stop-color="#005E94"/>
<stop offset="0.510417" stop-color="#95D2EB"/>
<stop offset="1" stop-color="#005E94"/>
</linearGradient>
<linearGradient id="paint7_linear_4_4" x1="91.7263" y1="8.75641" x2="91.7263" y2="34.7026" gradientUnits="userSpaceOnUse">
<stop stop-color="#005E94"/>
<stop offset="0.510417" stop-color="#95D2EB"/>
<stop offset="1" stop-color="#005E94"/>
</linearGradient>
</defs>
</svg>
